<svg width="20.000000" height="20.000000" viewBox="0 0 20 20" fill="none" xmlns="http://www.w3.org/2000/svg" xmlns:xlink="http://www.w3.org/1999/xlink">
	<desc>
			Created with Pixso.
	</desc>
	<defs>
		<clipPath id="clip28_4080">
			<rect id="Property 1=active" rx="4.000000" width="20.000000" height="20.000000" fill="white" fill-opacity="0"/>
		</clipPath>
	</defs>
	<rect id="Property 1=active" rx="4.000000" width="20.000000" height="20.000000" fill="#FFFFFF" fill-opacity="0"/>
	<g clip-path="url(#clip28_4080)">
		<rect id="uim:check" width="16.000000" height="16.000000" transform="translate(2.000000 2.000000)" fill="#FFFFFF" fill-opacity="0"/>
		<path id="Vector" d="M8.56 13.38C8.47 13.38 8.38 13.36 8.3 13.33C8.22 13.3 8.15 13.25 8.08 13.19L5.52 10.63C5.46 10.56 5.41 10.49 5.37 10.41C5.34 10.33 5.32 10.24 5.32 10.15C5.32 10.06 5.34 9.98 5.37 9.89C5.4 9.81 5.45 9.74 5.52 9.68C5.58 9.61 5.65 9.56 5.73 9.53C5.82 9.5 5.9 9.48 5.99 9.48C6.08 9.48 6.17 9.5 6.25 9.53C6.33 9.57 6.4 9.62 6.47 9.68L8.56 11.77L13.52 6.8C13.65 6.68 13.82 6.62 13.99 6.62C14.17 6.62 14.33 6.69 14.46 6.81C14.58 6.94 14.65 7.1 14.65 7.28C14.66 7.45 14.59 7.62 14.47 7.75L9.03 13.19C8.96 13.25 8.89 13.3 8.81 13.33C8.73 13.36 8.64 13.38 8.56 13.38Z" fill="#171717" fill-opacity="1.000000" fill-rule="nonzero"/>
	</g>
</svg>
